<?xml version="1.0" encoding="utf-8"?>
<!-- Generator: Adobe Illustrator 16.0.0, SVG Export Plug-In . SVG Version: 6.00 Build 0)  -->
<!DOCTYPE svg PUBLIC "-//W3C//DTD SVG 1.1//EN" "http://www.w3.org/Graphics/SVG/1.1/DTD/svg11.dtd">
<svg version="1.1" id="图层_1" xmlns="http://www.w3.org/2000/svg" xmlns:xlink="http://www.w3.org/1999/xlink" x="0px" y="0px"
	 width="505px" height="506px" viewBox="0 0 505 506" enable-background="new 0 0 505 506" xml:space="preserve">
<path fill="#FFFFFF" d="M496.641,251.304c0,135.31-109.689,245-245,245s-245-109.69-245-245s109.69-245,245-245
	S496.641,115.994,496.641,251.304"/>
<path fill="#3882C5" d="M422.813,284.678L338.273,131.36c-2.439-4.507-5.978-8.04-10.102-10.447
	c-1.292-1.054-2.695-2.007-4.215-2.83c-13.1-7.096-29.471-2.224-36.557,10.88l-35.846,66.291l-35.885-66.297
	c-7.092-13.103-23.464-17.976-36.567-10.884c-1.784,0.966-3.41,2.108-4.879,3.387c-3.743,2.383-6.952,5.721-9.214,9.9
	l-84.54,152.116c-7.092,13.104-2.22,29.476,10.884,36.567c13.103,7.093,29.475,2.22,36.567-10.883l63.07-112.45l29.902,55.245
	l-50.211,92.853c-0.756,1.397-1.368,2.836-1.856,4.293c-1.71,3.543-2.669,7.516-2.669,11.713c0,14.899,12.079,26.978,26.978,26.978
	H310.04c14.899,0,26.978-12.078,26.978-26.978c0-4.187-0.953-8.148-2.653-11.684c-0.492-1.479-1.111-2.936-1.88-4.354
	l-50.269-92.874l29.961-55.405l63.185,113.864c7.093,13.103,23.465,17.976,36.567,10.884
	C425.033,314.153,429.905,297.782,422.813,284.678 M265.21,333.836h-27.3l13.644-25.23L265.21,333.836z"/>
<path fill="#3882C5" d="M455.178,347.186L455.178,347.186c-7.092-13.104-23.464-17.977-36.566-10.884
	c-13.104,7.092-17.977,23.464-10.885,36.567c7.093,13.104,23.465,17.977,36.567,10.884
	C457.398,376.66,462.27,360.289,455.178,347.186"/>
<path fill="#3882C5" d="M84.671,336.301c-13.104-7.092-29.475-2.219-36.567,10.885c-7.093,13.103-2.22,29.475,10.883,36.568
	c13.104,7.092,29.476,2.219,36.568-10.885C102.647,359.766,97.775,343.395,84.671,336.301"/>
<polygon fill="#2266B2" points="282.266,251.994 287.582,242.161 257.26,184.884 251.602,195.345 "/>
<polygon fill="#2266B2" points="220.94,252.046 215.447,262.205 246.073,318.92 251.603,308.695 "/>
</svg>
