<?xml version="1.0" encoding="utf-8"?>
<!-- Generator: Adobe Illustrator 16.0.0, SVG Export Plug-In . SVG Version: 6.00 Build 0)  -->
<!DOCTYPE svg PUBLIC "-//W3C//DTD SVG 1.1//EN" "http://www.w3.org/Graphics/SVG/1.1/DTD/svg11.dtd">
<svg version="1.1" id="图层_1" xmlns="http://www.w3.org/2000/svg" xmlns:xlink="http://www.w3.org/1999/xlink" x="0px" y="0px"
	 width="505px" height="507px" viewBox="0 0 505 507" enable-background="new 0 0 505 507" xml:space="preserve">
<path fill="#3882C5" d="M498.482,253.792c0,135.31-109.689,245-245,245s-245-109.69-245-245c0-135.31,109.69-245,245-245
	S498.482,118.482,498.482,253.792"/>
<path fill="#FFFFFF" d="M424.654,287.166l-84.539-153.318c-2.439-4.507-5.978-8.04-10.102-10.447
	c-1.292-1.054-2.695-2.007-4.215-2.83c-13.1-7.096-29.471-2.224-36.557,10.88l-35.846,66.291l-35.885-66.297
	c-7.092-13.103-23.464-17.976-36.567-10.884c-1.784,0.966-3.41,2.108-4.879,3.387c-3.743,2.383-6.952,5.721-9.214,9.9
	l-84.54,152.117c-7.092,13.104-2.22,29.476,10.884,36.567c13.103,7.093,29.475,2.22,36.567-10.883l63.07-112.45l29.902,55.245
	l-50.211,92.853c-0.756,1.397-1.368,2.836-1.856,4.293c-1.71,3.543-2.669,7.516-2.669,11.713c0,14.899,12.079,26.978,26.978,26.978
	h116.906c14.899,0,26.978-12.078,26.978-26.978c0-4.187-0.953-8.148-2.653-11.684c-0.492-1.479-1.111-2.936-1.88-4.354
	l-50.269-92.875l29.961-55.404l63.185,113.863c7.093,13.104,23.465,17.977,36.567,10.885
	C426.875,316.641,431.747,300.271,424.654,287.166 M267.052,336.324h-27.3l13.644-25.23L267.052,336.324z"/>
<path fill="#FFFFFF" d="M457.02,349.674L457.02,349.674c-7.092-13.104-23.464-17.977-36.566-10.884
	c-13.104,7.092-17.977,23.464-10.885,36.567c7.093,13.104,23.465,17.977,36.567,10.883
	C459.24,379.148,464.111,362.777,457.02,349.674"/>
<path fill="#FFFFFF" d="M86.513,338.789c-13.104-7.092-29.475-2.219-36.567,10.885c-7.093,13.103-2.22,29.475,10.883,36.568
	c13.104,7.092,29.476,2.219,36.568-10.885C104.489,362.254,99.617,345.883,86.513,338.789"/>
<polygon fill="#FFFFFF" points="284.107,254.482 289.424,244.648 259.102,187.372 253.444,197.833 "/>
<polygon fill="#FFFFFF" points="222.782,254.535 217.289,264.693 247.915,321.408 253.444,311.184 "/>
</svg>
